<svg id="graphics" xmlns="http://www.w3.org/2000/svg" xmlns:xlink="http://www.w3.org/1999/xlink" viewBox="0 0 1797.25 1797.27"><defs><style>.cls-1{fill:url(#linear-gradient);}.cls-2{fill:url(#linear-gradient-2);}.cls-3{fill:url(#linear-gradient-3);}.cls-4{fill:url(#linear-gradient-4);}.cls-5{fill:url(#linear-gradient-5);}.cls-6{fill:url(#linear-gradient-6);}.cls-7{fill:url(#linear-gradient-7);}.cls-8{fill:url(#linear-gradient-8);}.cls-9{fill:url(#linear-gradient-9);}.cls-10{fill:url(#linear-gradient-10);}.cls-11{fill:url(#linear-gradient-11);}.cls-12{fill:url(#linear-gradient-12);}.cls-13{fill:url(#linear-gradient-13);}.cls-14{fill:url(#linear-gradient-14);}.cls-15{fill:url(#linear-gradient-15);}.cls-16{fill:url(#linear-gradient-16);}.cls-17{fill:url(#linear-gradient-17);}.cls-18{fill:url(#linear-gradient-18);}.cls-19{fill:url(#linear-gradient-19);}.cls-20{fill:url(#linear-gradient-20);}.cls-21{fill:url(#linear-gradient-21);}.cls-22{fill:url(#linear-gradient-22);}.cls-23{fill:url(#linear-gradient-23);}</style><linearGradient id="linear-gradient" x1="1903.28" y1="461.41" x2="1095.44" y2="461.41" gradientUnits="userSpaceOnUse"><stop offset="0" stop-color="#82e7f3"/><stop offset="1" stop-color="#ee6c4d"/></linearGradient><linearGradient id="linear-gradient-2" x1="1724.42" y1="985.79" x2="639.78" y2="985.79" xlink:href="#linear-gradient"/><linearGradient id="linear-gradient-3" x1="769.34" y1="511.54" x2="559.37" y2="511.54" xlink:href="#linear-gradient"/><linearGradient id="linear-gradient-4" x1="901.94" y1="728.8" x2="526.38" y2="728.8" xlink:href="#linear-gradient"/><linearGradient id="linear-gradient-5" x1="912.38" y1="924.81" x2="538.16" y2="924.81" xlink:href="#linear-gradient"/><linearGradient id="linear-gradient-6" x1="1391.58" y1="665.12" x2="578.34" y2="665.12" xlink:href="#linear-gradient"/><linearGradient id="linear-gradient-7" x1="1265.11" y1="1325.87" x2="833.16" y2="1325.87" xlink:href="#linear-gradient"/><linearGradient id="linear-gradient-8" x1="1864.7" y1="1645.5" x2="1458.44" y2="1645.5" xlink:href="#linear-gradient"/><linearGradient id="linear-gradient-9" x1="2323.63" y1="1377.81" x2="1742" y2="1377.81" xlink:href="#linear-gradient"/><linearGradient id="linear-gradient-10" x1="2284.44" y1="1387.02" x2="2095.45" y2="1387.02" xlink:href="#linear-gradient"/><linearGradient id="linear-gradient-11" x1="2313.18" y1="1291.06" x2="1097.46" y2="1291.06" xlink:href="#linear-gradient"/><linearGradient id="linear-gradient-12" x1="1735.8" y1="1021.69" x2="1177.95" y2="1021.69" xlink:href="#linear-gradient"/><linearGradient id="linear-gradient-13" x1="1587.07" y1="1417.6" x2="949.14" y2="1417.6" xlink:href="#linear-gradient"/><linearGradient id="linear-gradient-14" x1="2212.34" y1="618.8" x2="1921.46" y2="618.8" xlink:href="#linear-gradient"/><linearGradient id="linear-gradient-15" x1="2022.67" y1="819.3" x2="1506.1" y2="819.3" xlink:href="#linear-gradient"/><linearGradient id="linear-gradient-16" x1="2271.68" y1="853.41" x2="1807.14" y2="853.41" xlink:href="#linear-gradient"/><linearGradient id="linear-gradient-17" x1="1527.29" y1="1705.4" x2="1261.76" y2="1705.4" xlink:href="#linear-gradient"/><linearGradient id="linear-gradient-18" x1="970.29" y1="1421.5" x2="729.6" y2="1421.5" xlink:href="#linear-gradient"/><linearGradient id="linear-gradient-19" x1="1529.16" y1="662.97" x2="1273.54" y2="662.97" xlink:href="#linear-gradient"/><linearGradient id="linear-gradient-20" x1="1763.86" y1="209.57" x2="1531.4" y2="209.57" xlink:href="#linear-gradient"/><linearGradient id="linear-gradient-21" x1="2129.07" y1="451.98" x2="1924.09" y2="451.98" xlink:href="#linear-gradient"/><linearGradient id="linear-gradient-22" x1="1588.24" y1="307.41" x2="1097.1" y2="307.41" xlink:href="#linear-gradient"/><linearGradient id="linear-gradient-23" x1="1114.23" y1="254.79" x2="847.87" y2="254.79" xlink:href="#linear-gradient"/></defs><path class="cls-1" d="M1682,413.35l174.06-174.07a39.49,39.49,0,1,0-31-31L1651,382.3a84.08,84.08,0,0,1-59.11,24.34H1472.51a128.64,128.64,0,0,0-90.43,37.47l-242.5,242.51a37.88,37.88,0,1,0,31,31l242.52-242.54a84.45,84.45,0,0,1,59.39-24.6h119.33A128.38,128.38,0,0,0,1682,413.35Z" transform="translate(-526.38 -51.37)"/><path class="cls-2" d="M1197.59,932.58h119.34a127.85,127.85,0,0,0,89.89-36.93l270.4-270.4a39.51,39.51,0,1,0-31-31l-270.4,270.41a83.64,83.64,0,0,1-58.85,24.07H1197.59a128.74,128.74,0,0,0-90.45,37.45L684.47,1348.82a38.17,38.17,0,1,0,31,31l422.67-422.69A84.6,84.6,0,0,1,1197.59,932.58Z" transform="translate(-526.38 -51.37)"/><path class="cls-3" d="M637.6,629.27l78.07-78.07a128.86,128.86,0,0,0,37.44-90.43V415.9a37,37,0,0,0,5-4.11,38.18,38.18,0,1,0-54,0,37.68,37.68,0,0,0,5.06,4.12v44.87a84.58,84.58,0,0,1-24.59,59.4l-78.07,78.07a39.5,39.5,0,1,0,31,31Z" transform="translate(-526.38 -51.37)"/><path class="cls-4" d="M604.61,869.37,858,616.05a37.8,37.8,0,1,0-31.05-31L573.57,838.34a39.5,39.5,0,1,0,31,31Z" transform="translate(-526.38 -51.37)"/><path class="cls-5" d="M613.89,1067.23,868.41,812.71a37.79,37.79,0,1,0-31-31l-254.5,254.52a38.17,38.17,0,1,0,31,31Z" transform="translate(-526.38 -51.37)"/><path class="cls-6" d="M656.57,1231.67,980.23,908a128.73,128.73,0,0,0,37.34-90.32l0-326.46a85.78,85.78,0,0,1,25.22-60L1344.38,129.6a39.51,39.51,0,1,0-31-31L1011.73,400.18a130,130,0,0,0-38.08,91.05l0,326.45A84.52,84.52,0,0,1,949.19,877L625.52,1200.64a39.5,39.5,0,1,0,31.05,31Z" transform="translate(-526.38 -51.37)"/><path class="cls-7" d="M911.39,1598.21l143.95-144a128.76,128.76,0,0,0,37.47-90.43V1244.48a84,84,0,0,1,24.22-59l100.88-100.87a39.5,39.5,0,1,0-31-31L1086,1154.4a128.1,128.1,0,0,0-37.08,90.1v119.32a84.52,84.52,0,0,1-24.61,59.4l-143.95,144a39.5,39.5,0,1,0,31,31Z" transform="translate(-526.38 -51.37)"/><path class="cls-8" d="M1536.67,1801.43l280.83-280.84a39.51,39.51,0,1,0-31-31l-280.84,280.84a39.51,39.51,0,1,0,31,31Z" transform="translate(-526.38 -51.37)"/><path class="cls-9" d="M1820.23,1725l144.37-144.37a128.86,128.86,0,0,0,37.47-90.41V1370.89a85.09,85.09,0,0,1,25-59.8l249.39-249.44a39.49,39.49,0,1,0-31-31L1996,1280.05a129.28,129.28,0,0,0-37.83,90.84v119.32a84.54,84.54,0,0,1-24.61,59.38L1789.19,1694a39.51,39.51,0,1,0,31,31Z" transform="translate(-526.38 -51.37)"/><path class="cls-10" d="M2162.87,1476.85a38.72,38.72,0,0,0-9.67-6.89v-43.13a84.7,84.7,0,0,1,24.63-59.44l59.41-59.41a39.5,39.5,0,1,0-31-31l-59.41,59.41a128.84,128.84,0,0,0-37.49,90.47V1475c-.75.65-1.57,1.16-2.29,1.88a39.5,39.5,0,1,0,55.85,0Z" transform="translate(-526.38 -51.37)"/><path class="cls-11" d="M2301.6,798.34A39.48,39.48,0,0,0,2234.94,834l-595.82,595.82a84.61,84.61,0,0,1-59.41,24.62H1460.38a128.63,128.63,0,0,0-90.43,37.46l-227.79,227.77a38.18,38.18,0,1,0,31,31L1401,1522.87a84.52,84.52,0,0,1,59.39-24.6h119.33a128.73,128.73,0,0,0,90.44-37.47L2266,865a39.48,39.48,0,0,0,35.63-66.65Z" transform="translate(-526.38 -51.37)"/><path class="cls-12" d="M1724.24,810.18A39.5,39.5,0,1,0,1657.56,790l-432.41,432.42a39.51,39.51,0,1,0,31,31L1688.61,821A39.45,39.45,0,0,0,1724.24,810.18Z" transform="translate(-526.38 -51.37)"/><path class="cls-13" d="M1575.5,1166.08a39.51,39.51,0,1,0-66.66-20.26l-512.5,512.51a39.5,39.5,0,1,0,31,31l512.49-512.5A39.42,39.42,0,0,0,1575.5,1166.08Z" transform="translate(-526.38 -51.37)"/><path class="cls-14" d="M1933,696.81A39.5,39.5,0,1,0,1999.69,717L2168.2,548.52a37.89,37.89,0,1,0-31-31L1968.65,686A39.47,39.47,0,0,0,1933,696.81Z" transform="translate(-526.38 -51.37)"/><path class="cls-15" d="M1517.65,1319.27a39.5,39.5,0,1,0,66.67,20.25l95.33-95.33a128.8,128.8,0,0,0,37.46-90.44V1034.41a84.54,84.54,0,0,1,24.62-59.4l66.63-66.64a130.07,130.07,0,0,0,37.79-90.27l2.52-326.56A85.89,85.89,0,0,1,1873.62,432l101.85-101.84a39.51,39.51,0,1,0-31-31L1842.59,400.94a130.11,130.11,0,0,0-37.8,90.27l-2.52,326.55a85.86,85.86,0,0,1-25,59.58L1710.71,944a128.65,128.65,0,0,0-37.48,90.44v119.34a84.6,84.6,0,0,1-24.62,59.4l-95.3,95.32A39.5,39.5,0,0,0,1517.65,1319.27Z" transform="translate(-526.38 -51.37)"/><path class="cls-16" d="M1818.71,1018.25a39.5,39.5,0,1,0,66.66,20.23l339.11-339.12a39.5,39.5,0,1,0-31-31l-339.13,339.12A39.48,39.48,0,0,0,1818.71,1018.25Z" transform="translate(-526.38 -51.37)"/><path class="cls-17" d="M1515.71,1640.06a39.5,39.5,0,1,0-66.65-20.22L1309,1759.94a39.48,39.48,0,1,0,31,31l140.08-140.1A39.39,39.39,0,0,0,1515.71,1640.06Z" transform="translate(-526.38 -51.37)"/><path class="cls-18" d="M958.72,1368.59a39.5,39.5,0,1,0-66.67-20.23L776.79,1463.62a39.48,39.48,0,1,0,31.05,31L923.08,1379.4A39.46,39.46,0,0,0,958.72,1368.59Z" transform="translate(-526.38 -51.37)"/><path class="cls-19" d="M1284.62,726.23a37.81,37.81,0,1,0,64,20.55l136.6-136.62a37.78,37.78,0,1,0-31-31L1317.54,715.75A37.66,37.66,0,0,0,1284.62,726.23Z" transform="translate(-526.38 -51.37)"/><path class="cls-20" d="M1543,258.37a39.5,39.5,0,1,0,66.68,20.24l107-107a39.5,39.5,0,1,0-31-31l-107,107A39.45,39.45,0,0,0,1543,258.37Z" transform="translate(-526.38 -51.37)"/><path class="cls-21" d="M2053.36,394.18l-84.57,84.56a38.16,38.16,0,1,0,31,31l84.56-84.57a38.19,38.19,0,1,0-31-31Z" transform="translate(-526.38 -51.37)"/><path class="cls-22" d="M1510,109,1255.64,363.41l.51.5c-8.74,7.73-26.45,25.44-68.45,67.44l-45.91,45.89a38.17,38.17,0,1,0,31,31.05c32.72-32.73,92.15-92.15,109.16-109.15L1541,140.07a39.5,39.5,0,1,0-31-31Z" transform="translate(-526.38 -51.37)"/><path class="cls-23" d="M1102.66,133.18A39.49,39.49,0,0,0,1036,168.8l-144,144a37.86,37.86,0,1,0,31,31l144-144a39.48,39.48,0,0,0,35.63-66.65Z" transform="translate(-526.38 -51.37)"/></svg>