<svg id="Main" xmlns="http://www.w3.org/2000/svg" viewBox="0 0 65.67 50.93"><defs><style>.cls-1{fill:#98c1d9;}.cls-1,.cls-2,.cls-3{fill-rule:evenodd;}.cls-2{fill:#293241;}.cls-3{fill:#ed6b4d;}</style></defs><g id="Symbol"><path class="cls-1" d="M212.8,123.45h0a7.67,7.67,0,0,0-7.64,7.64v35.64a7.66,7.66,0,0,0,7.64,7.64h0a7.65,7.65,0,0,0,7.63-7.64V131.09A7.66,7.66,0,0,0,212.8,123.45Z" transform="translate(-205.16 -123.44)"/><path class="cls-2" d="M263.19,159.09h0a7.67,7.67,0,0,0-7.64,7.64h0a7.67,7.67,0,0,0,7.64,7.64h0a7.67,7.67,0,0,0,7.64-7.64h0A7.67,7.67,0,0,0,263.19,159.09Z" transform="translate(-205.16 -123.44)"/><path class="cls-3" d="M207.39,125.67h0a7.66,7.66,0,0,0,0,10.8l25.23,25.23a7.65,7.65,0,0,0,10.77,0l25.21-25.21a7.66,7.66,0,0,0,0-10.8h0a7.66,7.66,0,0,0-10.8,0l-17.39,17.39a3.84,3.84,0,0,1-2.4.85h0a3.78,3.78,0,0,1-2.65-1.07l-17.17-17.17A7.66,7.66,0,0,0,207.39,125.67Z" transform="translate(-205.16 -123.44)"/></g></svg>